Coordinates
version=1
nRows=22
nColumns=24
inDegrees=yes

Units are S.I. units (second, meters, Newtons, ...)
Angles are in degrees.

endheader
time	pelvis_tilt	pelvis_list	pelvis_rotation	pelvis_tx	pelvis_ty	pelvis_tz	hip_flexion_r	hip_adduction_r	hip_rotation_r	knee_angle_r	ankle_angle_r	subtalar_angle_r	mtp_angle_r	hip_flexion_l	hip_adduction_l	hip_rotation_l	knee_angle_l	ankle_angle_l	subtalar_angle_l	mtp_angle_l	lumbar_extension	lumbar_bending	lumbar_rotation
      6.20000000	      7.66594790	     -4.91036725	     -8.40173543	     -1.06492348	      0.73192377	      0.20399833	    -18.05368170	      6.95922554	     12.88800629	    -19.30684916	     21.86164655	     -7.68490915	      0.00000000	      8.57054648	     -4.88371878	      0.87000281	      4.69982922	     -0.34244348	    -18.86226542	      0.00000000	    -27.38833101	     -1.73464022	      5.79593767
      6.21000000	      8.01723801	     -4.22111674	     -8.40112201	     -1.05165347	      0.73315509	      0.20222392	    -17.19003668	      6.17047572	     11.60110041	    -23.14100413	     20.06335570	     -7.44579499	      0.00000000	      8.22450286	     -3.82249915	      1.15978889	      3.07223561	     -2.20301616	    -21.01002355	      0.00000000	    -27.58266821	     -2.46438762	      5.45498470
      6.22000000	      8.34075102	     -3.44691618	     -8.33845074	     -1.03837362	      0.73470813	      0.20028698	    -15.93209498	      5.29543203	     10.22493363	    -27.42546216	     17.54368148	     -7.42338036	      0.00000000	      7.96526411	     -2.63163998	      1.02726639	      1.31044305	     -3.57397400	    -22.33313247	      0.00000000	    -27.72570678	     -3.21298363	      5.00073997
      6.23000000	      8.74631221	     -2.58135254	     -8.19542844	     -1.02506072	      0.73653256	      0.19818895	    -14.45825833	      4.27806379	      8.76462294	    -31.99641799	     14.29358750	     -7.73316639	      0.00000000	      7.58885072	     -1.31566163	      0.60860863	     -0.38482895	     -4.34110766	    -22.78121036	      0.00000000	    -27.93638018	     -3.99546168	      4.38687028
      6.24000000	      8.98381491	     -1.72733536	     -8.01270920	     -1.01175517	      0.73820674	      0.19594615	    -12.52740555	      3.19520196	      7.21155384	    -36.76260293	     10.53274304	     -7.99218581	      0.00000000	      7.28769449	     -0.03937634	      0.41719746	     -1.90306421	     -4.85530656	    -23.17531661	      0.00000000	    -27.93491259	     -4.66033429	      3.70511036
      6.25000000	      9.23628223	     -0.86841740	     -7.78369465	     -0.99844681	      0.73981117	      0.19360677	    -10.47644439	      2.01508201	      5.72553173	    -41.43632423	      6.42284882	     -8.58938858	      0.00000000	      6.81496581	      1.24479868	      0.32814518	     -3.14422976	     -5.05662014	    -23.36532649	      0.00000000	    -27.93555085	     -5.26689399	      2.91922023
      6.26000000	      9.46169754	     -0.07634990	     -7.54776968	     -0.98518909	      0.74126927	      0.19126252	     -8.36424344	      0.86927434	      4.50372739	    -45.81961089	      2.19524701	     -9.62104492	      0.00000000	      6.21408569	      2.44691947	      0.30230216	     -4.13070501	     -4.92713906	    -23.39094239	      0.00000000	    -27.90961727	     -5.75530058	      2.05889864
      6.27000000	      9.65576887	      0.66614420	     -7.34579210	     -0.97203429	      0.74252320	      0.18897170	     -6.19662274	     -0.27030067	      3.49175238	    -49.85005287	     -1.53850372	    -10.85662888	      0.00000000	      5.47399506	      3.58228422	      0.29111790	     -4.82940336	     -4.51231421	    -23.42224474	      0.00000000	    -27.85967827	     -6.17202146	      1.22666966
      6.28000000	      9.84884412	      1.31611270	     -7.16711745	     -0.95905590	      0.74366661	      0.18678774	     -4.07293798	     -1.27438139	      2.78221674	    -53.40913705	     -4.52630570	    -12.33822999	      0.00000000	      4.57463898	      4.60730470	      0.34841636	     -5.27823092	     -3.83136795	    -23.38990361	      0.00000000	    -27.85400483	     -6.48572416	      0.39990019
      6.29000000	      9.99804771	      1.89403565	     -7.03400287	     -0.94633064	      0.74470082	      0.18475039	     -1.93083438	     -2.12346741	      2.37410983	    -56.50837410	     -6.44792870	    -13.77547778	      0.00000000	      3.59395266	      5.53455347	      0.38061112	     -5.51031690	     -3.10383350	    -23.42579367	      0.00000000	    -27.86563677	     -6.73029625	     -0.42851137
      6.30000000	     10.14127985	      2.35241894	     -6.94475182	     -0.93385208	      0.74575998	      0.18289656	      0.14864528	     -2.72898509	      2.25066969	    -59.08035774	     -7.36845096	    -15.30453431	      0.00000000	      2.47885132	      6.31980949	      0.44233131	     -5.52100463	     -2.17678197	    -23.40552398	      0.00000000	    -27.94113346	     -6.87544747	     -1.13456171
      6.31000000	     10.28916510	      2.72000441	     -6.87840130	     -0.92163256	      0.74690922	      0.18121316	      2.15172814	     -3.09552344	      2.37701181	    -61.13026922	     -7.29715115	    -16.62608909	      0.00000000	      1.25238316	      6.99541784	      0.53874395	     -5.35634612	     -1.28811694	    -23.34521958	      0.00000000	    -28.10533266	     -6.94555614	     -1.84063003
      6.32000000	     10.38496642	      2.91412619	     -6.85511799	     -0.90961944	      0.74815355	      0.17974081	      4.11325740	     -3.12534733	      2.71846028	    -62.63011918	     -6.71245477	    -17.89962373	      0.00000000	      0.03394997	      7.45755406	      0.40401842	     -5.12911477	     -0.13585195	    -22.91363803	      0.00000000	    -28.27462897	     -6.86527472	     -2.32747767
      6.33000000	     10.53249106	      3.02436926	     -6.78963363	     -0.89774144	      0.74956397	      0.17833446	      5.89074993	     -2.97585798	      3.12038604	    -63.58028548	     -5.55714207	    -18.72862231	      0.00000000	     -1.34631030	      7.83386626	      0.50019336	     -4.73608931	      0.75332997	    -22.66911684	      0.00000000	    -28.56592453	     -6.70050407	     -2.85434774
      6.34000000	     10.63212549	      2.95408563	     -6.75330958	     -0.88593692	      0.75103091	      0.17709710	      7.57655506	     -2.53712212	      3.61086350	    -63.99352321	     -4.23570203	    -19.25061397	      0.00000000	     -2.67366190	      7.99144619	      0.27843095	     -4.37018953	      1.90961555	    -21.94806025	      0.00000000	    -28.81831920	     -6.37890341	     -3.18624262
      6.35000000	     10.68132068	      2.74549360	     -6.61464485	     -0.87417829	      0.75247297	      0.17585879	      9.12250417	     -1.88200550	      4.06313770	    -63.86015486	     -3.07098890	    -19.75935735	      0.00000000	     -4.02729797	      7.98927726	      0.53003223	     -3.90728433	      2.73511310	    -21.79873766	      0.00000000	    -29.04254172	     -5.88462021	     -3.53338322
      6.36000000	     10.71379714	      2.42650562	     -6.39906988	     -0.86242780	      0.75386256	      0.17464489	     10.49096245	     -1.10308837	      4.43186558	    -63.21287487	     -1.81344610	    -19.94526295	      0.00000000	     -5.34376339	      7.84115281	      0.74667203	     -3.49659279	      3.56180753	    -21.51003195	      0.00000000	    -29.25176882	     -5.26911752	     -3.86914863
      6.37000000	     10.71886133	      2.13376576	     -6.11589623	     -0.85069320	      0.75506763	      0.17346372	     11.73546652	     -0.38044157	      4.71771649	    -62.13459285	     -0.34265638	    -19.76140066	      0.00000000	     -6.54486858	      7.68547025	      0.72946567	     -3.21127314	      4.59485233	    -20.71746995	      0.00000000	    -29.41937859	     -4.69528866	     -4.22628966
      6.38000000	     10.59013268	      1.73987781	     -5.67978275	     -0.83896438	      0.75598774	      0.17219210	     12.89632826	      0.44243964	      4.88871654	    -60.54659736	      0.79457649	    -19.91551408	      0.00000000	     -7.58758589	      7.37697748	      1.11319342	     -2.97353403	      5.39217847	    -20.47570212	      0.00000000	    -29.42605632	     -3.94781936	     -4.64049098
      6.39000000	     10.50964107	      1.44664660	     -5.19359366	     -0.82725251	      0.75669170	      0.17094387	     13.85980985	      1.07260101	      4.97923352	    -58.56608119	      2.32839614	    -19.60223000	      0.00000000	     -8.60826582	      7.14597908	      1.33112589	     -2.82791923	      6.38114112	    -19.79364785	      0.00000000	    -29.47565867	     -3.33519274	     -5.11680053
      6.40000000	     10.32319812	      1.16688034	     -4.57943906	     -0.81556080	      0.75703897	      0.16965263	     14.73873436	      1.65823400	      5.01476702	    -56.13290784	      3.48613675	    -19.75397927	      0.00000000	     -9.48649864	      6.87963803	      1.84996651	     -2.72153768	      7.18649326	    -19.52868286	      0.00000000	    -29.39449337	     -2.70534337	     -5.70802243
      6.41000000	     10.21572789	      1.01997614	     -3.94552956	     -0.80384805	      0.75716449	      0.16835514	     15.37485105	      2.01214964	      5.03887365	    -53.31902952	      4.81724197	    -19.70789126	      0.00000000	    -10.42594881	      6.73754671	      2.28394016	     -2.62795707	      8.03227149	    -19.06483633	      0.00000000	    -29.38935682	     -2.22266804	     -6.33023886
